<svg xmlns="http://www.w3.org/2000/svg" viewBox="0 0 1600 900" role="img" aria-label="">
<defs>
  <linearGradient id="bg" x1="0" y1="0" x2="1" y2="1">
    <stop offset="0" stop-color="#1b1233"/><stop offset="1" stop-color="#0d0a1e"/>
  </linearGradient>
  <radialGradient id="glow" cx="78%" cy="32%" r="75%">
    <stop offset="0" stop-color="#9333EA" stop-opacity=".55"/><stop offset="1" stop-color="#9333EA" stop-opacity="0"/>
  </radialGradient>
</defs>
<rect width="1600" height="900" fill="url(#bg)"/>
<rect width="1600" height="900" fill="url(#glow)"/>
<rect x="60" y="780" width="116" height="20" rx="10" fill="#C084FC" opacity="0.54"/>
<rect x="177" y="721" width="205" height="20" rx="10" fill="#9333EA" opacity="0.34"/>
<rect x="293" y="662" width="229" height="20" rx="10" fill="#C084FC" opacity="0.58"/>
<rect x="410" y="603" width="116" height="20" rx="10" fill="#9333EA" opacity="0.21"/>
<rect x="527" y="544" width="220" height="20" rx="10" fill="#C084FC" opacity="0.24"/>
<rect x="643" y="485" width="192" height="20" rx="10" fill="#9333EA" opacity="0.50"/>
<rect x="760" y="426" width="201" height="20" rx="10" fill="#C084FC" opacity="0.44"/>
<rect x="877" y="367" width="105" height="20" rx="10" fill="#9333EA" opacity="0.41"/>
<rect x="993" y="308" width="198" height="20" rx="10" fill="#C084FC" opacity="0.26"/>
<rect x="1110" y="249" width="94" height="20" rx="10" fill="#9333EA" opacity="0.64"/>
<rect x="1227" y="191" width="209" height="20" rx="10" fill="#C084FC" opacity="0.31"/>
<rect x="1343" y="132" width="193" height="20" rx="10" fill="#9333EA" opacity="0.34"/>
<rect x="60" y="776" width="64" height="64" rx="16" fill="#9333EA"/>
<circle cx="92" cy="808" r="7" fill="#fff"/>
</svg>