<svg xmlns="http://www.w3.org/2000/svg" viewBox="0 0 1600 900" role="img" aria-label="">
<defs>
  <linearGradient id="bg" x1="0" y1="0" x2="1" y2="1">
    <stop offset="0" stop-color="#1b1233"/><stop offset="1" stop-color="#0d0a1e"/>
  </linearGradient>
  <radialGradient id="glow" cx="51%" cy="73%" r="75%">
    <stop offset="0" stop-color="#9333EA" stop-opacity=".55"/><stop offset="1" stop-color="#9333EA" stop-opacity="0"/>
  </radialGradient>
</defs>
<rect width="1600" height="900" fill="url(#bg)"/>
<rect width="1600" height="900" fill="url(#glow)"/>
<rect x="60" y="780" width="203" height="20" rx="10" fill="#C084FC" opacity="0.66"/>
<rect x="177" y="719" width="100" height="20" rx="10" fill="#9333EA" opacity="0.28"/>
<rect x="293" y="658" width="191" height="20" rx="10" fill="#C084FC" opacity="0.45"/>
<rect x="410" y="597" width="184" height="20" rx="10" fill="#9333EA" opacity="0.59"/>
<rect x="527" y="536" width="208" height="20" rx="10" fill="#C084FC" opacity="0.30"/>
<rect x="643" y="474" width="136" height="20" rx="10" fill="#9333EA" opacity="0.34"/>
<rect x="760" y="413" width="120" height="20" rx="10" fill="#C084FC" opacity="0.36"/>
<rect x="877" y="352" width="121" height="20" rx="10" fill="#9333EA" opacity="0.64"/>
<rect x="993" y="291" width="101" height="20" rx="10" fill="#C084FC" opacity="0.41"/>
<rect x="1110" y="230" width="184" height="20" rx="10" fill="#9333EA" opacity="0.67"/>
<rect x="1227" y="169" width="164" height="20" rx="10" fill="#C084FC" opacity="0.25"/>
<rect x="1343" y="108" width="226" height="20" rx="10" fill="#9333EA" opacity="0.57"/>
<rect x="60" y="776" width="64" height="64" rx="16" fill="#9333EA"/>
<circle cx="92" cy="808" r="7" fill="#fff"/>
</svg>