<svg xmlns="http://www.w3.org/2000/svg" viewBox="0 0 1600 900" role="img" aria-label="">
<defs>
  <linearGradient id="bg" x1="0" y1="0" x2="1" y2="1">
    <stop offset="0" stop-color="#1b1233"/><stop offset="1" stop-color="#0d0a1e"/>
  </linearGradient>
  <radialGradient id="glow" cx="22%" cy="83%" r="75%">
    <stop offset="0" stop-color="#5E17EB" stop-opacity=".55"/><stop offset="1" stop-color="#5E17EB" stop-opacity="0"/>
  </radialGradient>
</defs>
<rect width="1600" height="900" fill="url(#bg)"/>
<rect width="1600" height="900" fill="url(#glow)"/>
<rect x="40" y="356" width="20" height="189" rx="10" fill="#8B5CF6" opacity="0.38"/>
<rect x="76" y="386" width="20" height="129" rx="10" fill="#5E17EB" opacity="0.42"/>
<rect x="112" y="265" width="20" height="370" rx="10" fill="#5E17EB" opacity="0.17"/>
<rect x="149" y="331" width="20" height="238" rx="10" fill="#8B5CF6" opacity="0.31"/>
<rect x="185" y="364" width="20" height="173" rx="10" fill="#5E17EB" opacity="0.30"/>
<rect x="221" y="331" width="20" height="238" rx="10" fill="#5E17EB" opacity="0.17"/>
<rect x="257" y="285" width="20" height="331" rx="10" fill="#8B5CF6" opacity="0.61"/>
<rect x="293" y="224" width="20" height="453" rx="10" fill="#5E17EB" opacity="0.52"/>
<rect x="330" y="426" width="20" height="49" rx="10" fill="#5E17EB" opacity="0.29"/>
<rect x="366" y="363" width="20" height="174" rx="10" fill="#8B5CF6" opacity="0.18"/>
<rect x="402" y="381" width="20" height="138" rx="10" fill="#5E17EB" opacity="0.30"/>
<rect x="438" y="404" width="20" height="92" rx="10" fill="#5E17EB" opacity="0.31"/>
<rect x="474" y="330" width="20" height="240" rx="10" fill="#8B5CF6" opacity="0.45"/>
<rect x="510" y="396" width="20" height="108" rx="10" fill="#5E17EB" opacity="0.62"/>
<rect x="547" y="397" width="20" height="107" rx="10" fill="#5E17EB" opacity="0.37"/>
<rect x="583" y="329" width="20" height="242" rx="10" fill="#8B5CF6" opacity="0.24"/>
<rect x="619" y="210" width="20" height="480" rx="10" fill="#5E17EB" opacity="0.26"/>
<rect x="655" y="366" width="20" height="169" rx="10" fill="#5E17EB" opacity="0.46"/>
<rect x="691" y="364" width="20" height="173" rx="10" fill="#8B5CF6" opacity="0.17"/>
<rect x="728" y="348" width="20" height="203" rx="10" fill="#5E17EB" opacity="0.21"/>
<rect x="764" y="329" width="20" height="241" rx="10" fill="#5E17EB" opacity="0.52"/>
<rect x="800" y="407" width="20" height="85" rx="10" fill="#8B5CF6" opacity="0.24"/>
<rect x="836" y="234" width="20" height="432" rx="10" fill="#5E17EB" opacity="0.18"/>
<rect x="872" y="187" width="20" height="525" rx="10" fill="#5E17EB" opacity="0.26"/>
<rect x="909" y="277" width="20" height="346" rx="10" fill="#8B5CF6" opacity="0.22"/>
<rect x="945" y="258" width="20" height="383" rx="10" fill="#5E17EB" opacity="0.45"/>
<rect x="981" y="370" width="20" height="159" rx="10" fill="#5E17EB" opacity="0.18"/>
<rect x="1017" y="377" width="20" height="147" rx="10" fill="#8B5CF6" opacity="0.28"/>
<rect x="1053" y="416" width="20" height="69" rx="10" fill="#5E17EB" opacity="0.55"/>
<rect x="1090" y="417" width="20" height="65" rx="10" fill="#5E17EB" opacity="0.19"/>
<rect x="1126" y="375" width="20" height="149" rx="10" fill="#8B5CF6" opacity="0.26"/>
<rect x="1162" y="349" width="20" height="202" rx="10" fill="#5E17EB" opacity="0.24"/>
<rect x="1198" y="311" width="20" height="278" rx="10" fill="#5E17EB" opacity="0.51"/>
<rect x="1234" y="354" width="20" height="192" rx="10" fill="#8B5CF6" opacity="0.55"/>
<rect x="1270" y="199" width="20" height="502" rx="10" fill="#5E17EB" opacity="0.32"/>
<rect x="1307" y="187" width="20" height="526" rx="10" fill="#5E17EB" opacity="0.64"/>
<rect x="1343" y="236" width="20" height="428" rx="10" fill="#8B5CF6" opacity="0.20"/>
<rect x="1379" y="307" width="20" height="286" rx="10" fill="#5E17EB" opacity="0.17"/>
<rect x="1415" y="410" width="20" height="79" rx="10" fill="#5E17EB" opacity="0.24"/>
<rect x="1451" y="374" width="20" height="152" rx="10" fill="#8B5CF6" opacity="0.44"/>
<rect x="1488" y="414" width="20" height="72" rx="10" fill="#5E17EB" opacity="0.55"/>
<rect x="1524" y="393" width="20" height="115" rx="10" fill="#5E17EB" opacity="0.55"/>
<rect x="60" y="776" width="64" height="64" rx="16" fill="#5E17EB"/>
<circle cx="92" cy="808" r="7" fill="#fff"/>
</svg>