<svg xmlns="http://www.w3.org/2000/svg" viewBox="0 0 1600 900" role="img" aria-label="">
<defs>
  <linearGradient id="bg" x1="0" y1="0" x2="1" y2="1">
    <stop offset="0" stop-color="#1b1233"/><stop offset="1" stop-color="#0d0a1e"/>
  </linearGradient>
  <radialGradient id="glow" cx="55%" cy="50%" r="75%">
    <stop offset="0" stop-color="#5E17EB" stop-opacity=".55"/><stop offset="1" stop-color="#5E17EB" stop-opacity="0"/>
  </radialGradient>
</defs>
<rect width="1600" height="900" fill="url(#bg)"/>
<rect width="1600" height="900" fill="url(#glow)"/>
<rect x="40" y="382" width="20" height="135" rx="10" fill="#8B5CF6" opacity="0.50"/>
<rect x="76" y="336" width="20" height="228" rx="10" fill="#5E17EB" opacity="0.37"/>
<rect x="112" y="288" width="20" height="324" rx="10" fill="#5E17EB" opacity="0.53"/>
<rect x="149" y="234" width="20" height="432" rx="10" fill="#8B5CF6" opacity="0.50"/>
<rect x="185" y="292" width="20" height="315" rx="10" fill="#5E17EB" opacity="0.20"/>
<rect x="221" y="221" width="20" height="459" rx="10" fill="#5E17EB" opacity="0.29"/>
<rect x="257" y="415" width="20" height="69" rx="10" fill="#8B5CF6" opacity="0.60"/>
<rect x="293" y="388" width="20" height="124" rx="10" fill="#5E17EB" opacity="0.20"/>
<rect x="330" y="365" width="20" height="169" rx="10" fill="#5E17EB" opacity="0.49"/>
<rect x="366" y="435" width="20" height="31" rx="10" fill="#8B5CF6" opacity="0.25"/>
<rect x="402" y="403" width="20" height="95" rx="10" fill="#5E17EB" opacity="0.22"/>
<rect x="438" y="430" width="20" height="39" rx="10" fill="#5E17EB" opacity="0.50"/>
<rect x="474" y="234" width="20" height="432" rx="10" fill="#8B5CF6" opacity="0.61"/>
<rect x="510" y="215" width="20" height="470" rx="10" fill="#5E17EB" opacity="0.42"/>
<rect x="547" y="267" width="20" height="365" rx="10" fill="#5E17EB" opacity="0.63"/>
<rect x="583" y="363" width="20" height="175" rx="10" fill="#8B5CF6" opacity="0.25"/>
<rect x="619" y="377" width="20" height="145" rx="10" fill="#5E17EB" opacity="0.64"/>
<rect x="655" y="266" width="20" height="367" rx="10" fill="#5E17EB" opacity="0.39"/>
<rect x="691" y="382" width="20" height="137" rx="10" fill="#8B5CF6" opacity="0.51"/>
<rect x="728" y="403" width="20" height="95" rx="10" fill="#5E17EB" opacity="0.51"/>
<rect x="764" y="432" width="20" height="36" rx="10" fill="#5E17EB" opacity="0.31"/>
<rect x="800" y="275" width="20" height="350" rx="10" fill="#8B5CF6" opacity="0.48"/>
<rect x="836" y="367" width="20" height="165" rx="10" fill="#5E17EB" opacity="0.24"/>
<rect x="872" y="345" width="20" height="209" rx="10" fill="#5E17EB" opacity="0.17"/>
<rect x="909" y="352" width="20" height="195" rx="10" fill="#8B5CF6" opacity="0.56"/>
<rect x="945" y="367" width="20" height="166" rx="10" fill="#5E17EB" opacity="0.34"/>
<rect x="981" y="347" width="20" height="206" rx="10" fill="#5E17EB" opacity="0.30"/>
<rect x="1017" y="265" width="20" height="370" rx="10" fill="#8B5CF6" opacity="0.19"/>
<rect x="1053" y="413" width="20" height="74" rx="10" fill="#5E17EB" opacity="0.22"/>
<rect x="1090" y="345" width="20" height="210" rx="10" fill="#5E17EB" opacity="0.45"/>
<rect x="1126" y="325" width="20" height="249" rx="10" fill="#8B5CF6" opacity="0.51"/>
<rect x="1162" y="295" width="20" height="310" rx="10" fill="#5E17EB" opacity="0.59"/>
<rect x="1198" y="293" width="20" height="314" rx="10" fill="#5E17EB" opacity="0.38"/>
<rect x="1234" y="187" width="20" height="526" rx="10" fill="#8B5CF6" opacity="0.22"/>
<rect x="1270" y="183" width="20" height="534" rx="10" fill="#5E17EB" opacity="0.48"/>
<rect x="1307" y="216" width="20" height="467" rx="10" fill="#5E17EB" opacity="0.63"/>
<rect x="1343" y="405" width="20" height="91" rx="10" fill="#8B5CF6" opacity="0.65"/>
<rect x="1379" y="289" width="20" height="321" rx="10" fill="#5E17EB" opacity="0.33"/>
<rect x="1415" y="358" width="20" height="184" rx="10" fill="#5E17EB" opacity="0.46"/>
<rect x="1451" y="407" width="20" height="86" rx="10" fill="#8B5CF6" opacity="0.20"/>
<rect x="1488" y="393" width="20" height="114" rx="10" fill="#5E17EB" opacity="0.44"/>
<rect x="1524" y="384" width="20" height="133" rx="10" fill="#5E17EB" opacity="0.25"/>
<rect x="60" y="776" width="64" height="64" rx="16" fill="#5E17EB"/>
<circle cx="92" cy="808" r="7" fill="#fff"/>
</svg>