<svg xmlns="http://www.w3.org/2000/svg" viewBox="0 0 1600 900" role="img" aria-label="">
<defs>
  <linearGradient id="bg" x1="0" y1="0" x2="1" y2="1">
    <stop offset="0" stop-color="#1b1233"/><stop offset="1" stop-color="#0d0a1e"/>
  </linearGradient>
  <radialGradient id="glow" cx="21%" cy="72%" r="75%">
    <stop offset="0" stop-color="#9333EA" stop-opacity=".55"/><stop offset="1" stop-color="#9333EA" stop-opacity="0"/>
  </radialGradient>
</defs>
<rect width="1600" height="900" fill="url(#bg)"/>
<rect width="1600" height="900" fill="url(#glow)"/>
<rect x="60" y="780" width="200" height="20" rx="10" fill="#C084FC" opacity="0.71"/>
<rect x="177" y="726" width="104" height="20" rx="10" fill="#9333EA" opacity="0.66"/>
<rect x="293" y="671" width="160" height="20" rx="10" fill="#C084FC" opacity="0.44"/>
<rect x="410" y="617" width="93" height="20" rx="10" fill="#9333EA" opacity="0.48"/>
<rect x="527" y="562" width="170" height="20" rx="10" fill="#C084FC" opacity="0.38"/>
<rect x="643" y="508" width="163" height="20" rx="10" fill="#9333EA" opacity="0.21"/>
<rect x="760" y="453" width="153" height="20" rx="10" fill="#C084FC" opacity="0.51"/>
<rect x="877" y="399" width="201" height="20" rx="10" fill="#9333EA" opacity="0.21"/>
<rect x="993" y="344" width="179" height="20" rx="10" fill="#C084FC" opacity="0.46"/>
<rect x="1110" y="290" width="99" height="20" rx="10" fill="#9333EA" opacity="0.49"/>
<rect x="1227" y="236" width="207" height="20" rx="10" fill="#C084FC" opacity="0.64"/>
<rect x="1343" y="181" width="91" height="20" rx="10" fill="#9333EA" opacity="0.46"/>
<rect x="60" y="776" width="64" height="64" rx="16" fill="#9333EA"/>
<circle cx="92" cy="808" r="7" fill="#fff"/>
</svg>