<svg xmlns="http://www.w3.org/2000/svg" viewBox="0 0 1600 900" role="img" aria-label="">
<defs>
  <linearGradient id="bg" x1="0" y1="0" x2="1" y2="1">
    <stop offset="0" stop-color="#1b1233"/><stop offset="1" stop-color="#0d0a1e"/>
  </linearGradient>
  <radialGradient id="glow" cx="47%" cy="53%" r="75%">
    <stop offset="0" stop-color="#9333EA" stop-opacity=".55"/><stop offset="1" stop-color="#9333EA" stop-opacity="0"/>
  </radialGradient>
</defs>
<rect width="1600" height="900" fill="url(#bg)"/>
<rect width="1600" height="900" fill="url(#glow)"/>
<rect x="60" y="780" width="225" height="20" rx="10" fill="#C084FC" opacity="0.25"/>
<rect x="177" y="728" width="143" height="20" rx="10" fill="#9333EA" opacity="0.53"/>
<rect x="293" y="676" width="156" height="20" rx="10" fill="#C084FC" opacity="0.20"/>
<rect x="410" y="624" width="219" height="20" rx="10" fill="#9333EA" opacity="0.41"/>
<rect x="527" y="572" width="145" height="20" rx="10" fill="#C084FC" opacity="0.44"/>
<rect x="643" y="520" width="153" height="20" rx="10" fill="#9333EA" opacity="0.62"/>
<rect x="760" y="468" width="183" height="20" rx="10" fill="#C084FC" opacity="0.69"/>
<rect x="877" y="416" width="103" height="20" rx="10" fill="#9333EA" opacity="0.72"/>
<rect x="993" y="364" width="99" height="20" rx="10" fill="#C084FC" opacity="0.47"/>
<rect x="1110" y="312" width="97" height="20" rx="10" fill="#9333EA" opacity="0.27"/>
<rect x="1227" y="260" width="138" height="20" rx="10" fill="#C084FC" opacity="0.68"/>
<rect x="1343" y="208" width="123" height="20" rx="10" fill="#9333EA" opacity="0.50"/>
<rect x="60" y="776" width="64" height="64" rx="16" fill="#9333EA"/>
<circle cx="92" cy="808" r="7" fill="#fff"/>
</svg>