<svg xmlns="http://www.w3.org/2000/svg" viewBox="0 0 1600 900" role="img" aria-label="">
<defs>
  <linearGradient id="bg" x1="0" y1="0" x2="1" y2="1">
    <stop offset="0" stop-color="#1b1233"/><stop offset="1" stop-color="#0d0a1e"/>
  </linearGradient>
  <radialGradient id="glow" cx="75%" cy="85%" r="75%">
    <stop offset="0" stop-color="#DB2777" stop-opacity=".55"/><stop offset="1" stop-color="#DB2777" stop-opacity="0"/>
  </radialGradient>
</defs>
<rect width="1600" height="900" fill="url(#bg)"/>
<rect width="1600" height="900" fill="url(#glow)"/>
<polygon points="673,0 329,900 553,900" fill="#F472B6" opacity="0.26"/>
<polygon points="1227,0 949,900 1115,900" fill="#DB2777" opacity="0.31"/>
<polygon points="1157,0 1321,900 1634,900" fill="#F472B6" opacity="0.14"/>
<polygon points="1431,0 1014,900 1251,900" fill="#DB2777" opacity="0.21"/>
<polygon points="201,0 31,900 160,900" fill="#F472B6" opacity="0.21"/>
<polygon points="1287,0 1543,900 1737,900" fill="#DB2777" opacity="0.16"/>
<circle cx="545" cy="275" r="4.0" fill="#F472B6" opacity="0.50"/>
<circle cx="664" cy="584" r="2.6" fill="#F472B6" opacity="0.69"/>
<circle cx="337" cy="691" r="3.8" fill="#F472B6" opacity="0.51"/>
<circle cx="803" cy="794" r="3.1" fill="#F472B6" opacity="0.73"/>
<circle cx="1290" cy="860" r="4.9" fill="#F472B6" opacity="0.35"/>
<circle cx="315" cy="138" r="3.7" fill="#F472B6" opacity="0.30"/>
<circle cx="1145" cy="121" r="3.4" fill="#F472B6" opacity="0.57"/>
<circle cx="415" cy="91" r="2.2" fill="#F472B6" opacity="0.29"/>
<circle cx="136" cy="402" r="4.9" fill="#F472B6" opacity="0.63"/>
<circle cx="943" cy="637" r="4.6" fill="#F472B6" opacity="0.56"/>
<circle cx="1418" cy="490" r="2.3" fill="#F472B6" opacity="0.57"/>
<circle cx="1412" cy="106" r="5.9" fill="#F472B6" opacity="0.34"/>
<circle cx="475" cy="178" r="5.6" fill="#F472B6" opacity="0.67"/>
<circle cx="935" cy="495" r="3.2" fill="#F472B6" opacity="0.51"/>
<circle cx="1439" cy="126" r="2.1" fill="#F472B6" opacity="0.67"/>
<circle cx="1329" cy="728" r="5.3" fill="#F472B6" opacity="0.27"/>
<circle cx="1068" cy="574" r="2.5" fill="#F472B6" opacity="0.68"/>
<circle cx="842" cy="469" r="3.4" fill="#F472B6" opacity="0.60"/>
<circle cx="389" cy="175" r="2.9" fill="#F472B6" opacity="0.51"/>
<circle cx="581" cy="427" r="3.4" fill="#F472B6" opacity="0.57"/>
<circle cx="1342" cy="278" r="3.0" fill="#F472B6" opacity="0.70"/>
<circle cx="280" cy="828" r="2.8" fill="#F472B6" opacity="0.27"/>
<circle cx="485" cy="260" r="3.0" fill="#F472B6" opacity="0.32"/>
<circle cx="729" cy="545" r="5.7" fill="#F472B6" opacity="0.33"/>
<rect x="60" y="776" width="64" height="64" rx="16" fill="#DB2777"/>
<circle cx="92" cy="808" r="7" fill="#fff"/>
</svg>