<svg xmlns="http://www.w3.org/2000/svg" viewBox="0 0 1600 900" role="img" aria-label="">
<defs>
  <linearGradient id="bg" x1="0" y1="0" x2="1" y2="1">
    <stop offset="0" stop-color="#1b1233"/><stop offset="1" stop-color="#0d0a1e"/>
  </linearGradient>
  <radialGradient id="glow" cx="75%" cy="88%" r="75%">
    <stop offset="0" stop-color="#5E17EB" stop-opacity=".55"/><stop offset="1" stop-color="#5E17EB" stop-opacity="0"/>
  </radialGradient>
</defs>
<rect width="1600" height="900" fill="url(#bg)"/>
<rect width="1600" height="900" fill="url(#glow)"/>
<rect x="40" y="384" width="20" height="132" rx="10" fill="#8B5CF6" opacity="0.53"/>
<rect x="76" y="297" width="20" height="306" rx="10" fill="#5E17EB" opacity="0.39"/>
<rect x="112" y="390" width="20" height="120" rx="10" fill="#5E17EB" opacity="0.52"/>
<rect x="149" y="263" width="20" height="375" rx="10" fill="#8B5CF6" opacity="0.49"/>
<rect x="185" y="383" width="20" height="134" rx="10" fill="#5E17EB" opacity="0.42"/>
<rect x="221" y="401" width="20" height="97" rx="10" fill="#5E17EB" opacity="0.61"/>
<rect x="257" y="204" width="20" height="493" rx="10" fill="#8B5CF6" opacity="0.17"/>
<rect x="293" y="340" width="20" height="220" rx="10" fill="#5E17EB" opacity="0.40"/>
<rect x="330" y="428" width="20" height="43" rx="10" fill="#5E17EB" opacity="0.26"/>
<rect x="366" y="388" width="20" height="124" rx="10" fill="#8B5CF6" opacity="0.43"/>
<rect x="402" y="391" width="20" height="118" rx="10" fill="#5E17EB" opacity="0.61"/>
<rect x="438" y="421" width="20" height="58" rx="10" fill="#5E17EB" opacity="0.58"/>
<rect x="474" y="243" width="20" height="413" rx="10" fill="#8B5CF6" opacity="0.50"/>
<rect x="510" y="214" width="20" height="473" rx="10" fill="#5E17EB" opacity="0.63"/>
<rect x="547" y="345" width="20" height="210" rx="10" fill="#5E17EB" opacity="0.60"/>
<rect x="583" y="400" width="20" height="100" rx="10" fill="#8B5CF6" opacity="0.37"/>
<rect x="619" y="381" width="20" height="139" rx="10" fill="#5E17EB" opacity="0.25"/>
<rect x="655" y="419" width="20" height="62" rx="10" fill="#5E17EB" opacity="0.53"/>
<rect x="691" y="371" width="20" height="158" rx="10" fill="#8B5CF6" opacity="0.49"/>
<rect x="728" y="429" width="20" height="42" rx="10" fill="#5E17EB" opacity="0.55"/>
<rect x="764" y="365" width="20" height="171" rx="10" fill="#5E17EB" opacity="0.59"/>
<rect x="800" y="371" width="20" height="159" rx="10" fill="#8B5CF6" opacity="0.35"/>
<rect x="836" y="325" width="20" height="250" rx="10" fill="#5E17EB" opacity="0.30"/>
<rect x="872" y="263" width="20" height="373" rx="10" fill="#5E17EB" opacity="0.43"/>
<rect x="909" y="398" width="20" height="104" rx="10" fill="#8B5CF6" opacity="0.40"/>
<rect x="945" y="231" width="20" height="438" rx="10" fill="#5E17EB" opacity="0.34"/>
<rect x="981" y="412" width="20" height="75" rx="10" fill="#5E17EB" opacity="0.65"/>
<rect x="1017" y="401" width="20" height="99" rx="10" fill="#8B5CF6" opacity="0.43"/>
<rect x="1053" y="422" width="20" height="56" rx="10" fill="#5E17EB" opacity="0.22"/>
<rect x="1090" y="358" width="20" height="183" rx="10" fill="#5E17EB" opacity="0.27"/>
<rect x="1126" y="312" width="20" height="277" rx="10" fill="#8B5CF6" opacity="0.18"/>
<rect x="1162" y="259" width="20" height="381" rx="10" fill="#5E17EB" opacity="0.33"/>
<rect x="1198" y="319" width="20" height="262" rx="10" fill="#5E17EB" opacity="0.41"/>
<rect x="1234" y="296" width="20" height="309" rx="10" fill="#8B5CF6" opacity="0.65"/>
<rect x="1270" y="414" width="20" height="71" rx="10" fill="#5E17EB" opacity="0.21"/>
<rect x="1307" y="204" width="20" height="492" rx="10" fill="#5E17EB" opacity="0.39"/>
<rect x="1343" y="240" width="20" height="420" rx="10" fill="#8B5CF6" opacity="0.55"/>
<rect x="1379" y="373" width="20" height="153" rx="10" fill="#5E17EB" opacity="0.33"/>
<rect x="1415" y="429" width="20" height="41" rx="10" fill="#5E17EB" opacity="0.39"/>
<rect x="1451" y="408" width="20" height="83" rx="10" fill="#8B5CF6" opacity="0.31"/>
<rect x="1488" y="393" width="20" height="113" rx="10" fill="#5E17EB" opacity="0.41"/>
<rect x="1524" y="294" width="20" height="312" rx="10" fill="#5E17EB" opacity="0.16"/>
<rect x="60" y="776" width="64" height="64" rx="16" fill="#5E17EB"/>
<circle cx="92" cy="808" r="7" fill="#fff"/>
</svg>