<svg xmlns="http://www.w3.org/2000/svg" viewBox="0 0 1600 900" role="img" aria-label="">
<defs>
  <linearGradient id="bg" x1="0" y1="0" x2="1" y2="1">
    <stop offset="0" stop-color="#1b1233"/><stop offset="1" stop-color="#0d0a1e"/>
  </linearGradient>
  <radialGradient id="glow" cx="47%" cy="86%" r="75%">
    <stop offset="0" stop-color="#5E17EB" stop-opacity=".55"/><stop offset="1" stop-color="#5E17EB" stop-opacity="0"/>
  </radialGradient>
</defs>
<rect width="1600" height="900" fill="url(#bg)"/>
<rect width="1600" height="900" fill="url(#glow)"/>
<rect x="40" y="409" width="20" height="82" rx="10" fill="#8B5CF6" opacity="0.35"/>
<rect x="76" y="368" width="20" height="164" rx="10" fill="#5E17EB" opacity="0.61"/>
<rect x="112" y="325" width="20" height="250" rx="10" fill="#5E17EB" opacity="0.50"/>
<rect x="149" y="340" width="20" height="221" rx="10" fill="#8B5CF6" opacity="0.21"/>
<rect x="185" y="259" width="20" height="383" rx="10" fill="#5E17EB" opacity="0.53"/>
<rect x="221" y="357" width="20" height="186" rx="10" fill="#5E17EB" opacity="0.41"/>
<rect x="257" y="208" width="20" height="484" rx="10" fill="#8B5CF6" opacity="0.20"/>
<rect x="293" y="326" width="20" height="248" rx="10" fill="#5E17EB" opacity="0.38"/>
<rect x="330" y="370" width="20" height="159" rx="10" fill="#5E17EB" opacity="0.28"/>
<rect x="366" y="435" width="20" height="30" rx="10" fill="#8B5CF6" opacity="0.19"/>
<rect x="402" y="371" width="20" height="158" rx="10" fill="#5E17EB" opacity="0.58"/>
<rect x="438" y="314" width="20" height="272" rx="10" fill="#5E17EB" opacity="0.29"/>
<rect x="474" y="408" width="20" height="84" rx="10" fill="#8B5CF6" opacity="0.49"/>
<rect x="510" y="256" width="20" height="388" rx="10" fill="#5E17EB" opacity="0.36"/>
<rect x="547" y="189" width="20" height="523" rx="10" fill="#5E17EB" opacity="0.21"/>
<rect x="583" y="360" width="20" height="180" rx="10" fill="#8B5CF6" opacity="0.44"/>
<rect x="619" y="333" width="20" height="235" rx="10" fill="#5E17EB" opacity="0.43"/>
<rect x="655" y="297" width="20" height="306" rx="10" fill="#5E17EB" opacity="0.64"/>
<rect x="691" y="294" width="20" height="313" rx="10" fill="#8B5CF6" opacity="0.48"/>
<rect x="728" y="435" width="20" height="30" rx="10" fill="#5E17EB" opacity="0.31"/>
<rect x="764" y="399" width="20" height="102" rx="10" fill="#5E17EB" opacity="0.30"/>
<rect x="800" y="298" width="20" height="304" rx="10" fill="#8B5CF6" opacity="0.50"/>
<rect x="836" y="267" width="20" height="367" rx="10" fill="#5E17EB" opacity="0.28"/>
<rect x="872" y="256" width="20" height="387" rx="10" fill="#5E17EB" opacity="0.64"/>
<rect x="909" y="311" width="20" height="279" rx="10" fill="#8B5CF6" opacity="0.64"/>
<rect x="945" y="294" width="20" height="313" rx="10" fill="#5E17EB" opacity="0.31"/>
<rect x="981" y="397" width="20" height="105" rx="10" fill="#5E17EB" opacity="0.21"/>
<rect x="1017" y="310" width="20" height="280" rx="10" fill="#8B5CF6" opacity="0.55"/>
<rect x="1053" y="339" width="20" height="222" rx="10" fill="#5E17EB" opacity="0.28"/>
<rect x="1090" y="427" width="20" height="46" rx="10" fill="#5E17EB" opacity="0.29"/>
<rect x="1126" y="384" width="20" height="132" rx="10" fill="#8B5CF6" opacity="0.23"/>
<rect x="1162" y="350" width="20" height="199" rx="10" fill="#5E17EB" opacity="0.34"/>
<rect x="1198" y="418" width="20" height="65" rx="10" fill="#5E17EB" opacity="0.21"/>
<rect x="1234" y="314" width="20" height="273" rx="10" fill="#8B5CF6" opacity="0.55"/>
<rect x="1270" y="391" width="20" height="118" rx="10" fill="#5E17EB" opacity="0.39"/>
<rect x="1307" y="414" width="20" height="73" rx="10" fill="#5E17EB" opacity="0.33"/>
<rect x="1343" y="420" width="20" height="60" rx="10" fill="#8B5CF6" opacity="0.44"/>
<rect x="1379" y="340" width="20" height="220" rx="10" fill="#5E17EB" opacity="0.19"/>
<rect x="1415" y="428" width="20" height="43" rx="10" fill="#5E17EB" opacity="0.44"/>
<rect x="1451" y="378" width="20" height="145" rx="10" fill="#8B5CF6" opacity="0.59"/>
<rect x="1488" y="341" width="20" height="219" rx="10" fill="#5E17EB" opacity="0.27"/>
<rect x="1524" y="284" width="20" height="332" rx="10" fill="#5E17EB" opacity="0.54"/>
<rect x="60" y="776" width="64" height="64" rx="16" fill="#5E17EB"/>
<circle cx="92" cy="808" r="7" fill="#fff"/>
</svg>