<svg xmlns="http://www.w3.org/2000/svg" viewBox="0 0 1600 900" role="img" aria-label="">
<defs>
  <linearGradient id="bg" x1="0" y1="0" x2="1" y2="1">
    <stop offset="0" stop-color="#1b1233"/><stop offset="1" stop-color="#0d0a1e"/>
  </linearGradient>
  <radialGradient id="glow" cx="28%" cy="18%" r="75%">
    <stop offset="0" stop-color="#9333EA" stop-opacity=".55"/><stop offset="1" stop-color="#9333EA" stop-opacity="0"/>
  </radialGradient>
</defs>
<rect width="1600" height="900" fill="url(#bg)"/>
<rect width="1600" height="900" fill="url(#glow)"/>
<rect x="60" y="780" width="194" height="20" rx="10" fill="#C084FC" opacity="0.50"/>
<rect x="177" y="733" width="229" height="20" rx="10" fill="#9333EA" opacity="0.72"/>
<rect x="293" y="686" width="179" height="20" rx="10" fill="#C084FC" opacity="0.40"/>
<rect x="410" y="640" width="92" height="20" rx="10" fill="#9333EA" opacity="0.47"/>
<rect x="527" y="593" width="154" height="20" rx="10" fill="#C084FC" opacity="0.50"/>
<rect x="643" y="546" width="192" height="20" rx="10" fill="#9333EA" opacity="0.61"/>
<rect x="760" y="499" width="94" height="20" rx="10" fill="#C084FC" opacity="0.57"/>
<rect x="877" y="452" width="220" height="20" rx="10" fill="#9333EA" opacity="0.64"/>
<rect x="993" y="405" width="138" height="20" rx="10" fill="#C084FC" opacity="0.49"/>
<rect x="1110" y="359" width="202" height="20" rx="10" fill="#9333EA" opacity="0.63"/>
<rect x="1227" y="312" width="104" height="20" rx="10" fill="#C084FC" opacity="0.26"/>
<rect x="1343" y="265" width="147" height="20" rx="10" fill="#9333EA" opacity="0.58"/>
<rect x="60" y="776" width="64" height="64" rx="16" fill="#9333EA"/>
<circle cx="92" cy="808" r="7" fill="#fff"/>
</svg>