<svg xmlns="http://www.w3.org/2000/svg" viewBox="0 0 1600 900" role="img" aria-label="">
<defs>
  <linearGradient id="bg" x1="0" y1="0" x2="1" y2="1">
    <stop offset="0" stop-color="#1b1233"/><stop offset="1" stop-color="#0d0a1e"/>
  </linearGradient>
  <radialGradient id="glow" cx="75%" cy="70%" r="75%">
    <stop offset="0" stop-color="#DB2777" stop-opacity=".55"/><stop offset="1" stop-color="#DB2777" stop-opacity="0"/>
  </radialGradient>
</defs>
<rect width="1600" height="900" fill="url(#bg)"/>
<rect width="1600" height="900" fill="url(#glow)"/>
<polygon points="1401,0 959,900 1215,900" fill="#F472B6" opacity="0.11"/>
<polygon points="491,0 458,900 713,900" fill="#DB2777" opacity="0.16"/>
<polygon points="262,0 -303,900 -112,900" fill="#F472B6" opacity="0.13"/>
<polygon points="161,0 -419,900 -229,900" fill="#DB2777" opacity="0.26"/>
<polygon points="236,0 568,900 690,900" fill="#F472B6" opacity="0.10"/>
<polygon points="387,0 -168,900 44,900" fill="#DB2777" opacity="0.27"/>
<circle cx="605" cy="180" r="4.0" fill="#F472B6" opacity="0.60"/>
<circle cx="899" cy="682" r="2.2" fill="#F472B6" opacity="0.61"/>
<circle cx="382" cy="850" r="5.3" fill="#F472B6" opacity="0.69"/>
<circle cx="693" cy="700" r="2.6" fill="#F472B6" opacity="0.51"/>
<circle cx="1238" cy="124" r="4.3" fill="#F472B6" opacity="0.65"/>
<circle cx="62" cy="460" r="4.4" fill="#F472B6" opacity="0.43"/>
<circle cx="1090" cy="292" r="5.0" fill="#F472B6" opacity="0.32"/>
<circle cx="1531" cy="774" r="5.4" fill="#F472B6" opacity="0.33"/>
<circle cx="1336" cy="63" r="4.4" fill="#F472B6" opacity="0.45"/>
<circle cx="671" cy="130" r="4.4" fill="#F472B6" opacity="0.69"/>
<circle cx="1558" cy="755" r="4.3" fill="#F472B6" opacity="0.57"/>
<circle cx="204" cy="410" r="2.8" fill="#F472B6" opacity="0.32"/>
<circle cx="630" cy="249" r="5.4" fill="#F472B6" opacity="0.45"/>
<circle cx="1153" cy="392" r="5.1" fill="#F472B6" opacity="0.31"/>
<circle cx="1151" cy="535" r="4.4" fill="#F472B6" opacity="0.58"/>
<circle cx="931" cy="121" r="3.1" fill="#F472B6" opacity="0.43"/>
<circle cx="1134" cy="60" r="2.6" fill="#F472B6" opacity="0.50"/>
<circle cx="889" cy="161" r="3.2" fill="#F472B6" opacity="0.37"/>
<circle cx="752" cy="497" r="5.9" fill="#F472B6" opacity="0.74"/>
<circle cx="1432" cy="324" r="4.5" fill="#F472B6" opacity="0.41"/>
<circle cx="234" cy="489" r="5.5" fill="#F472B6" opacity="0.28"/>
<circle cx="1083" cy="755" r="5.0" fill="#F472B6" opacity="0.67"/>
<circle cx="1403" cy="443" r="4.6" fill="#F472B6" opacity="0.60"/>
<circle cx="76" cy="594" r="5.3" fill="#F472B6" opacity="0.37"/>
<rect x="60" y="776" width="64" height="64" rx="16" fill="#DB2777"/>
<circle cx="92" cy="808" r="7" fill="#fff"/>
</svg>