<svg xmlns="http://www.w3.org/2000/svg" viewBox="0 0 1600 900" role="img" aria-label="">
<defs>
  <linearGradient id="bg" x1="0" y1="0" x2="1" y2="1">
    <stop offset="0" stop-color="#1b1233"/><stop offset="1" stop-color="#0d0a1e"/>
  </linearGradient>
  <radialGradient id="glow" cx="57%" cy="34%" r="75%">
    <stop offset="0" stop-color="#9333EA" stop-opacity=".55"/><stop offset="1" stop-color="#9333EA" stop-opacity="0"/>
  </radialGradient>
</defs>
<rect width="1600" height="900" fill="url(#bg)"/>
<rect width="1600" height="900" fill="url(#glow)"/>
<rect x="60" y="780" width="206" height="20" rx="10" fill="#C084FC" opacity="0.35"/>
<rect x="177" y="731" width="174" height="20" rx="10" fill="#9333EA" opacity="0.50"/>
<rect x="293" y="683" width="157" height="20" rx="10" fill="#C084FC" opacity="0.61"/>
<rect x="410" y="634" width="208" height="20" rx="10" fill="#9333EA" opacity="0.39"/>
<rect x="527" y="586" width="159" height="20" rx="10" fill="#C084FC" opacity="0.51"/>
<rect x="643" y="537" width="92" height="20" rx="10" fill="#9333EA" opacity="0.35"/>
<rect x="760" y="488" width="131" height="20" rx="10" fill="#C084FC" opacity="0.64"/>
<rect x="877" y="440" width="184" height="20" rx="10" fill="#9333EA" opacity="0.35"/>
<rect x="993" y="391" width="213" height="20" rx="10" fill="#C084FC" opacity="0.24"/>
<rect x="1110" y="343" width="154" height="20" rx="10" fill="#9333EA" opacity="0.73"/>
<rect x="1227" y="294" width="130" height="20" rx="10" fill="#C084FC" opacity="0.59"/>
<rect x="1343" y="245" width="174" height="20" rx="10" fill="#9333EA" opacity="0.63"/>
<rect x="60" y="776" width="64" height="64" rx="16" fill="#9333EA"/>
<circle cx="92" cy="808" r="7" fill="#fff"/>
</svg>